<svg width="57" height="37" viewBox="0 0 60 37" fill="none" xmlns="http://www.w3.org/2000/svg">
<path d="M56 0H4C1.79086 0 0 1.79086 0 4V33C0 35.2091 1.79086 37 4 37H56C58.2091 37 60 35.2091 60 33V4C60 1.79086 58.2091 0 56 0Z" fill="#E01A1A"/>
<path d="M38.6563 10.8415V11.5153H44.4337C44.8129 11.5153 45.3917 11.5153 45.7808 11.9075C46.16 12.2897 46.16 12.873 46.16 13.2652V19.0782C46.16 19.4604 46.16 20.0437 45.7808 20.4359C45.4016 20.8281 44.8229 20.8281 44.4337 20.8281H41.6398C41.1608 20.8281 40.5322 20.8281 40.2927 20.2951C40.0532 19.7621 40.3925 19.2793 40.6819 18.8871L44.4337 13.8485H38.6563L36.3513 16.9461C35.9621 17.4691 35.6328 17.9116 35.6328 18.4949C35.6328 19.0782 35.9421 19.5006 36.3513 20.0437L36.93 20.8181C37.4988 21.5925 38.0775 22.3669 38.8459 22.7591C39.6142 23.1413 40.5322 23.1413 41.7795 23.1413H44.2841C45.721 23.1413 47.8863 23.1413 49.3331 21.693C50.78 20.2348 50.78 18.1027 50.78 17.3283V15.0051C50.78 14.2307 50.78 12.0986 49.3331 10.6504C47.8962 9.20215 45.7309 9.20215 44.2841 9.20215H40.2927C39.9135 9.20215 39.4246 9.20215 39.0454 9.58432C38.6563 9.96649 38.6563 10.4492 38.6563 10.8415Z" fill="white"/>
<path d="M31.7316 13.8486H37.4991L30.5741 23.1514H24.8066L31.7316 13.8486Z" fill="white"/>
<path d="M9.23047 15.4879C9.23047 15.1058 9.23047 14.613 9.61963 14.2308C10.0088 13.8486 10.4877 13.8486 10.8669 13.8486H20.526C21.7733 13.8486 22.6913 13.8486 23.4596 14.2308C24.228 14.623 24.8067 15.3974 25.3855 16.1718L25.9642 16.9462C26.3733 17.4994 26.6827 17.9117 26.6827 18.495C26.6827 19.0783 26.3534 19.5309 25.9642 20.0438L23.6592 23.1414H17.8917L21.6436 18.1028C21.9329 17.7206 22.2722 17.2278 22.0327 16.6948C21.7933 16.1618 21.1646 16.1618 20.6856 16.1618H16.1654V27.7877H11.5455V16.1718H9.23047V15.4879Z" fill="white"/>
</svg>
